<?xml version="1.0" encoding="utf-8" standalone="no"?>
<!DOCTYPE svg PUBLIC "-//W3C//DTD SVG 1.1//EN"
  "http://www.w3.org/Graphics/SVG/1.1/DTD/svg11.dtd">
<svg xmlns:xlink="http://www.w3.org/1999/xlink" width="460.8pt" height="345.6pt" viewBox="0 0 460.8 345.6" xmlns="http://www.w3.org/2000/svg" version="1.1">
 <metadata>
  <rdf:RDF xmlns:dc="http://purl.org/dc/elements/1.1/" xmlns:cc="http://creativecommons.org/ns#" xmlns:rdf="http://www.w3.org/1999/02/22-rdf-syntax-ns#">
   <cc:Work>
    <dc:type rdf:resource="http://purl.org/dc/dcmitype/StillImage"/>
    <dc:date>2022-09-29T15:06:33.627313</dc:date>
    <dc:format>image/svg+xml</dc:format>
    <dc:creator>
     <cc:Agent>
      <dc:title>Matplotlib v3.5.3, https://matplotlib.org/</dc:title>
     </cc:Agent>
    </dc:creator>
   </cc:Work>
  </rdf:RDF>
 </metadata>
 <defs>
  <style type="text/css">*{stroke-linejoin: round; stroke-linecap: butt}</style>
 </defs>
 <g id="figure_1">
  <g id="patch_1">
   <path d="M 0 345.6 
L 460.8 345.6 
L 460.8 0 
L 0 0 
z
" style="fill: #ffffff"/>
  </g>
  <g id="axes_1">
   <g id="patch_2">
    <path d="M 57.6 307.584 
L 414.72 307.584 
L 414.72 41.472 
L 57.6 41.472 
z
" style="fill: #ffffff"/>
   </g>
   <g id="matplotlib.axis_1">
    <g id="xtick_1">
     <g id="line2d_1">
      <defs>
       <path id="m5fa95e06cf" d="M 0 0 
L 0 3.5 
" style="stroke: #000000; stroke-width: 0.8"/>
      </defs>
      <g>
       <use xlink:href="#m5fa95e06cf" x="73.832727" y="307.584" style="stroke: #000000; stroke-width: 0.8"/>
      </g>
     </g>
     <g id="text_1">
      <!-- 0 -->
      <g transform="translate(70.651477 322.182437)scale(0.1 -0.1)">
       <defs>
        <path id="DejaVuSans-30" d="M 2034 4250 
Q 1547 4250 1301 3770 
Q 1056 3291 1056 2328 
Q 1056 1369 1301 889 
Q 1547 409 2034 409 
Q 2525 409 2770 889 
Q 3016 1369 3016 2328 
Q 3016 3291 2770 3770 
Q 2525 4250 2034 4250 
z
M 2034 4750 
Q 2819 4750 3233 4129 
Q 3647 3509 3647 2328 
Q 3647 1150 3233 529 
Q 2819 -91 2034 -91 
Q 1250 -91 836 529 
Q 422 1150 422 2328 
Q 422 3509 836 4129 
Q 1250 4750 2034 4750 
z
" transform="scale(0.015625)"/>
       </defs>
       <use xlink:href="#DejaVuSans-30"/>
      </g>
     </g>
    </g>
    <g id="xtick_2">
     <g id="line2d_2">
      <g>
       <use xlink:href="#m5fa95e06cf" x="144.717999" y="307.584" style="stroke: #000000; stroke-width: 0.8"/>
      </g>
     </g>
     <g id="text_2">
      <!-- 50 -->
      <g transform="translate(138.355499 322.182437)scale(0.1 -0.1)">
       <defs>
        <path id="DejaVuSans-35" d="M 691 4666 
L 3169 4666 
L 3169 4134 
L 1269 4134 
L 1269 2991 
Q 1406 3038 1543 3061 
Q 1681 3084 1819 3084 
Q 2600 3084 3056 2656 
Q 3513 2228 3513 1497 
Q 3513 744 3044 326 
Q 2575 -91 1722 -91 
Q 1428 -91 1123 -41 
Q 819 9 494 109 
L 494 744 
Q 775 591 1075 516 
Q 1375 441 1709 441 
Q 2250 441 2565 725 
Q 2881 1009 2881 1497 
Q 2881 1984 2565 2268 
Q 2250 2553 1709 2553 
Q 1456 2553 1204 2497 
Q 953 2441 691 2322 
L 691 4666 
z
" transform="scale(0.015625)"/>
       </defs>
       <use xlink:href="#DejaVuSans-35"/>
       <use xlink:href="#DejaVuSans-30" x="63.623047"/>
      </g>
     </g>
    </g>
    <g id="xtick_3">
     <g id="line2d_3">
      <g>
       <use xlink:href="#m5fa95e06cf" x="215.603271" y="307.584" style="stroke: #000000; stroke-width: 0.8"/>
      </g>
     </g>
     <g id="text_3">
      <!-- 100 -->
      <g transform="translate(206.059521 322.182437)scale(0.1 -0.1)">
       <defs>
        <path id="DejaVuSans-31" d="M 794 531 
L 1825 531 
L 1825 4091 
L 703 3866 
L 703 4441 
L 1819 4666 
L 2450 4666 
L 2450 531 
L 3481 531 
L 3481 0 
L 794 0 
L 794 531 
z
" transform="scale(0.015625)"/>
       </defs>
       <use xlink:href="#DejaVuSans-31"/>
       <use xlink:href="#DejaVuSans-30" x="63.623047"/>
       <use xlink:href="#DejaVuSans-30" x="127.246094"/>
      </g>
     </g>
    </g>
    <g id="xtick_4">
     <g id="line2d_4">
      <g>
       <use xlink:href="#m5fa95e06cf" x="286.488543" y="307.584" style="stroke: #000000; stroke-width: 0.8"/>
      </g>
     </g>
     <g id="text_4">
      <!-- 150 -->
      <g transform="translate(276.944793 322.182437)scale(0.1 -0.1)">
       <use xlink:href="#DejaVuSans-31"/>
       <use xlink:href="#DejaVuSans-35" x="63.623047"/>
       <use xlink:href="#DejaVuSans-30" x="127.246094"/>
      </g>
     </g>
    </g>
    <g id="xtick_5">
     <g id="line2d_5">
      <g>
       <use xlink:href="#m5fa95e06cf" x="357.373815" y="307.584" style="stroke: #000000; stroke-width: 0.8"/>
      </g>
     </g>
     <g id="text_5">
      <!-- 200 -->
      <g transform="translate(347.830065 322.182437)scale(0.1 -0.1)">
       <defs>
        <path id="DejaVuSans-32" d="M 1228 531 
L 3431 531 
L 3431 0 
L 469 0 
L 469 531 
Q 828 903 1448 1529 
Q 2069 2156 2228 2338 
Q 2531 2678 2651 2914 
Q 2772 3150 2772 3378 
Q 2772 3750 2511 3984 
Q 2250 4219 1831 4219 
Q 1534 4219 1204 4116 
Q 875 4013 500 3803 
L 500 4441 
Q 881 4594 1212 4672 
Q 1544 4750 1819 4750 
Q 2544 4750 2975 4387 
Q 3406 4025 3406 3419 
Q 3406 3131 3298 2873 
Q 3191 2616 2906 2266 
Q 2828 2175 2409 1742 
Q 1991 1309 1228 531 
z
" transform="scale(0.015625)"/>
       </defs>
       <use xlink:href="#DejaVuSans-32"/>
       <use xlink:href="#DejaVuSans-30" x="63.623047"/>
       <use xlink:href="#DejaVuSans-30" x="127.246094"/>
      </g>
     </g>
    </g>
    <g id="text_6">
     <!-- Sample number -->
     <g transform="translate(196.308437 335.860562)scale(0.1 -0.1)">
      <defs>
       <path id="DejaVuSans-53" d="M 3425 4513 
L 3425 3897 
Q 3066 4069 2747 4153 
Q 2428 4238 2131 4238 
Q 1616 4238 1336 4038 
Q 1056 3838 1056 3469 
Q 1056 3159 1242 3001 
Q 1428 2844 1947 2747 
L 2328 2669 
Q 3034 2534 3370 2195 
Q 3706 1856 3706 1288 
Q 3706 609 3251 259 
Q 2797 -91 1919 -91 
Q 1588 -91 1214 -16 
Q 841 59 441 206 
L 441 856 
Q 825 641 1194 531 
Q 1563 422 1919 422 
Q 2459 422 2753 634 
Q 3047 847 3047 1241 
Q 3047 1584 2836 1778 
Q 2625 1972 2144 2069 
L 1759 2144 
Q 1053 2284 737 2584 
Q 422 2884 422 3419 
Q 422 4038 858 4394 
Q 1294 4750 2059 4750 
Q 2388 4750 2728 4690 
Q 3069 4631 3425 4513 
z
" transform="scale(0.015625)"/>
       <path id="DejaVuSans-61" d="M 2194 1759 
Q 1497 1759 1228 1600 
Q 959 1441 959 1056 
Q 959 750 1161 570 
Q 1363 391 1709 391 
Q 2188 391 2477 730 
Q 2766 1069 2766 1631 
L 2766 1759 
L 2194 1759 
z
M 3341 1997 
L 3341 0 
L 2766 0 
L 2766 531 
Q 2569 213 2275 61 
Q 1981 -91 1556 -91 
Q 1019 -91 701 211 
Q 384 513 384 1019 
Q 384 1609 779 1909 
Q 1175 2209 1959 2209 
L 2766 2209 
L 2766 2266 
Q 2766 2663 2505 2880 
Q 2244 3097 1772 3097 
Q 1472 3097 1187 3025 
Q 903 2953 641 2809 
L 641 3341 
Q 956 3463 1253 3523 
Q 1550 3584 1831 3584 
Q 2591 3584 2966 3190 
Q 3341 2797 3341 1997 
z
" transform="scale(0.015625)"/>
       <path id="DejaVuSans-6d" d="M 3328 2828 
Q 3544 3216 3844 3400 
Q 4144 3584 4550 3584 
Q 5097 3584 5394 3201 
Q 5691 2819 5691 2113 
L 5691 0 
L 5113 0 
L 5113 2094 
Q 5113 2597 4934 2840 
Q 4756 3084 4391 3084 
Q 3944 3084 3684 2787 
Q 3425 2491 3425 1978 
L 3425 0 
L 2847 0 
L 2847 2094 
Q 2847 2600 2669 2842 
Q 2491 3084 2119 3084 
Q 1678 3084 1418 2786 
Q 1159 2488 1159 1978 
L 1159 0 
L 581 0 
L 581 3500 
L 1159 3500 
L 1159 2956 
Q 1356 3278 1631 3431 
Q 1906 3584 2284 3584 
Q 2666 3584 2933 3390 
Q 3200 3197 3328 2828 
z
" transform="scale(0.015625)"/>
       <path id="DejaVuSans-70" d="M 1159 525 
L 1159 -1331 
L 581 -1331 
L 581 3500 
L 1159 3500 
L 1159 2969 
Q 1341 3281 1617 3432 
Q 1894 3584 2278 3584 
Q 2916 3584 3314 3078 
Q 3713 2572 3713 1747 
Q 3713 922 3314 415 
Q 2916 -91 2278 -91 
Q 1894 -91 1617 61 
Q 1341 213 1159 525 
z
M 3116 1747 
Q 3116 2381 2855 2742 
Q 2594 3103 2138 3103 
Q 1681 3103 1420 2742 
Q 1159 2381 1159 1747 
Q 1159 1113 1420 752 
Q 1681 391 2138 391 
Q 2594 391 2855 752 
Q 3116 1113 3116 1747 
z
" transform="scale(0.015625)"/>
       <path id="DejaVuSans-6c" d="M 603 4863 
L 1178 4863 
L 1178 0 
L 603 0 
L 603 4863 
z
" transform="scale(0.015625)"/>
       <path id="DejaVuSans-65" d="M 3597 1894 
L 3597 1613 
L 953 1613 
Q 991 1019 1311 708 
Q 1631 397 2203 397 
Q 2534 397 2845 478 
Q 3156 559 3463 722 
L 3463 178 
Q 3153 47 2828 -22 
Q 2503 -91 2169 -91 
Q 1331 -91 842 396 
Q 353 884 353 1716 
Q 353 2575 817 3079 
Q 1281 3584 2069 3584 
Q 2775 3584 3186 3129 
Q 3597 2675 3597 1894 
z
M 3022 2063 
Q 3016 2534 2758 2815 
Q 2500 3097 2075 3097 
Q 1594 3097 1305 2825 
Q 1016 2553 972 2059 
L 3022 2063 
z
" transform="scale(0.015625)"/>
       <path id="DejaVuSans-20" transform="scale(0.015625)"/>
       <path id="DejaVuSans-6e" d="M 3513 2113 
L 3513 0 
L 2938 0 
L 2938 2094 
Q 2938 2591 2744 2837 
Q 2550 3084 2163 3084 
Q 1697 3084 1428 2787 
Q 1159 2491 1159 1978 
L 1159 0 
L 581 0 
L 581 3500 
L 1159 3500 
L 1159 2956 
Q 1366 3272 1645 3428 
Q 1925 3584 2291 3584 
Q 2894 3584 3203 3211 
Q 3513 2838 3513 2113 
z
" transform="scale(0.015625)"/>
       <path id="DejaVuSans-75" d="M 544 1381 
L 544 3500 
L 1119 3500 
L 1119 1403 
Q 1119 906 1312 657 
Q 1506 409 1894 409 
Q 2359 409 2629 706 
Q 2900 1003 2900 1516 
L 2900 3500 
L 3475 3500 
L 3475 0 
L 2900 0 
L 2900 538 
Q 2691 219 2414 64 
Q 2138 -91 1772 -91 
Q 1169 -91 856 284 
Q 544 659 544 1381 
z
M 1991 3584 
L 1991 3584 
z
" transform="scale(0.015625)"/>
       <path id="DejaVuSans-62" d="M 3116 1747 
Q 3116 2381 2855 2742 
Q 2594 3103 2138 3103 
Q 1681 3103 1420 2742 
Q 1159 2381 1159 1747 
Q 1159 1113 1420 752 
Q 1681 391 2138 391 
Q 2594 391 2855 752 
Q 3116 1113 3116 1747 
z
M 1159 2969 
Q 1341 3281 1617 3432 
Q 1894 3584 2278 3584 
Q 2916 3584 3314 3078 
Q 3713 2572 3713 1747 
Q 3713 922 3314 415 
Q 2916 -91 2278 -91 
Q 1894 -91 1617 61 
Q 1341 213 1159 525 
L 1159 0 
L 581 0 
L 581 4863 
L 1159 4863 
L 1159 2969 
z
" transform="scale(0.015625)"/>
       <path id="DejaVuSans-72" d="M 2631 2963 
Q 2534 3019 2420 3045 
Q 2306 3072 2169 3072 
Q 1681 3072 1420 2755 
Q 1159 2438 1159 1844 
L 1159 0 
L 581 0 
L 581 3500 
L 1159 3500 
L 1159 2956 
Q 1341 3275 1631 3429 
Q 1922 3584 2338 3584 
Q 2397 3584 2469 3576 
Q 2541 3569 2628 3553 
L 2631 2963 
z
" transform="scale(0.015625)"/>
      </defs>
      <use xlink:href="#DejaVuSans-53"/>
      <use xlink:href="#DejaVuSans-61" x="63.476562"/>
      <use xlink:href="#DejaVuSans-6d" x="124.755859"/>
      <use xlink:href="#DejaVuSans-70" x="222.167969"/>
      <use xlink:href="#DejaVuSans-6c" x="285.644531"/>
      <use xlink:href="#DejaVuSans-65" x="313.427734"/>
      <use xlink:href="#DejaVuSans-20" x="374.951172"/>
      <use xlink:href="#DejaVuSans-6e" x="406.738281"/>
      <use xlink:href="#DejaVuSans-75" x="470.117188"/>
      <use xlink:href="#DejaVuSans-6d" x="533.496094"/>
      <use xlink:href="#DejaVuSans-62" x="630.908203"/>
      <use xlink:href="#DejaVuSans-65" x="694.384766"/>
      <use xlink:href="#DejaVuSans-72" x="755.908203"/>
     </g>
    </g>
   </g>
   <g id="matplotlib.axis_2">
    <g id="ytick_1">
     <g id="line2d_6">
      <defs>
       <path id="mdc5d85c358" d="M 0 0 
L -3.5 0 
" style="stroke: #000000; stroke-width: 0.8"/>
      </defs>
      <g>
       <use xlink:href="#mdc5d85c358" x="57.6" y="295.51383" style="stroke: #000000; stroke-width: 0.8"/>
      </g>
     </g>
     <g id="text_7">
      <!-- 0 -->
      <g transform="translate(44.2375 299.313048)scale(0.1 -0.1)">
       <use xlink:href="#DejaVuSans-30"/>
      </g>
     </g>
    </g>
    <g id="ytick_2">
     <g id="line2d_7">
      <g>
       <use xlink:href="#mdc5d85c358" x="57.6" y="245.599361" style="stroke: #000000; stroke-width: 0.8"/>
      </g>
     </g>
     <g id="text_8">
      <!-- 200 -->
      <g transform="translate(31.5125 249.398579)scale(0.1 -0.1)">
       <use xlink:href="#DejaVuSans-32"/>
       <use xlink:href="#DejaVuSans-30" x="63.623047"/>
       <use xlink:href="#DejaVuSans-30" x="127.246094"/>
      </g>
     </g>
    </g>
    <g id="ytick_3">
     <g id="line2d_8">
      <g>
       <use xlink:href="#mdc5d85c358" x="57.6" y="195.684892" style="stroke: #000000; stroke-width: 0.8"/>
      </g>
     </g>
     <g id="text_9">
      <!-- 400 -->
      <g transform="translate(31.5125 199.48411)scale(0.1 -0.1)">
       <defs>
        <path id="DejaVuSans-34" d="M 2419 4116 
L 825 1625 
L 2419 1625 
L 2419 4116 
z
M 2253 4666 
L 3047 4666 
L 3047 1625 
L 3713 1625 
L 3713 1100 
L 3047 1100 
L 3047 0 
L 2419 0 
L 2419 1100 
L 313 1100 
L 313 1709 
L 2253 4666 
z
" transform="scale(0.015625)"/>
       </defs>
       <use xlink:href="#DejaVuSans-34"/>
       <use xlink:href="#DejaVuSans-30" x="63.623047"/>
       <use xlink:href="#DejaVuSans-30" x="127.246094"/>
      </g>
     </g>
    </g>
    <g id="ytick_4">
     <g id="line2d_9">
      <g>
       <use xlink:href="#mdc5d85c358" x="57.6" y="145.770422" style="stroke: #000000; stroke-width: 0.8"/>
      </g>
     </g>
     <g id="text_10">
      <!-- 600 -->
      <g transform="translate(31.5125 149.569641)scale(0.1 -0.1)">
       <defs>
        <path id="DejaVuSans-36" d="M 2113 2584 
Q 1688 2584 1439 2293 
Q 1191 2003 1191 1497 
Q 1191 994 1439 701 
Q 1688 409 2113 409 
Q 2538 409 2786 701 
Q 3034 994 3034 1497 
Q 3034 2003 2786 2293 
Q 2538 2584 2113 2584 
z
M 3366 4563 
L 3366 3988 
Q 3128 4100 2886 4159 
Q 2644 4219 2406 4219 
Q 1781 4219 1451 3797 
Q 1122 3375 1075 2522 
Q 1259 2794 1537 2939 
Q 1816 3084 2150 3084 
Q 2853 3084 3261 2657 
Q 3669 2231 3669 1497 
Q 3669 778 3244 343 
Q 2819 -91 2113 -91 
Q 1303 -91 875 529 
Q 447 1150 447 2328 
Q 447 3434 972 4092 
Q 1497 4750 2381 4750 
Q 2619 4750 2861 4703 
Q 3103 4656 3366 4563 
z
" transform="scale(0.015625)"/>
       </defs>
       <use xlink:href="#DejaVuSans-36"/>
       <use xlink:href="#DejaVuSans-30" x="63.623047"/>
       <use xlink:href="#DejaVuSans-30" x="127.246094"/>
      </g>
     </g>
    </g>
    <g id="ytick_5">
     <g id="line2d_10">
      <g>
       <use xlink:href="#mdc5d85c358" x="57.6" y="95.855953" style="stroke: #000000; stroke-width: 0.8"/>
      </g>
     </g>
     <g id="text_11">
      <!-- 800 -->
      <g transform="translate(31.5125 99.655172)scale(0.1 -0.1)">
       <defs>
        <path id="DejaVuSans-38" d="M 2034 2216 
Q 1584 2216 1326 1975 
Q 1069 1734 1069 1313 
Q 1069 891 1326 650 
Q 1584 409 2034 409 
Q 2484 409 2743 651 
Q 3003 894 3003 1313 
Q 3003 1734 2745 1975 
Q 2488 2216 2034 2216 
z
M 1403 2484 
Q 997 2584 770 2862 
Q 544 3141 544 3541 
Q 544 4100 942 4425 
Q 1341 4750 2034 4750 
Q 2731 4750 3128 4425 
Q 3525 4100 3525 3541 
Q 3525 3141 3298 2862 
Q 3072 2584 2669 2484 
Q 3125 2378 3379 2068 
Q 3634 1759 3634 1313 
Q 3634 634 3220 271 
Q 2806 -91 2034 -91 
Q 1263 -91 848 271 
Q 434 634 434 1313 
Q 434 1759 690 2068 
Q 947 2378 1403 2484 
z
M 1172 3481 
Q 1172 3119 1398 2916 
Q 1625 2713 2034 2713 
Q 2441 2713 2670 2916 
Q 2900 3119 2900 3481 
Q 2900 3844 2670 4047 
Q 2441 4250 2034 4250 
Q 1625 4250 1398 4047 
Q 1172 3844 1172 3481 
z
" transform="scale(0.015625)"/>
       </defs>
       <use xlink:href="#DejaVuSans-38"/>
       <use xlink:href="#DejaVuSans-30" x="63.623047"/>
       <use xlink:href="#DejaVuSans-30" x="127.246094"/>
      </g>
     </g>
    </g>
    <g id="ytick_6">
     <g id="line2d_11">
      <g>
       <use xlink:href="#mdc5d85c358" x="57.6" y="45.941484" style="stroke: #000000; stroke-width: 0.8"/>
      </g>
     </g>
     <g id="text_12">
      <!-- 1000 -->
      <g transform="translate(25.15 49.740703)scale(0.1 -0.1)">
       <use xlink:href="#DejaVuSans-31"/>
       <use xlink:href="#DejaVuSans-30" x="63.623047"/>
       <use xlink:href="#DejaVuSans-30" x="127.246094"/>
       <use xlink:href="#DejaVuSans-30" x="190.869141"/>
      </g>
     </g>
    </g>
    <g id="text_13">
     <!-- Data value -->
     <g transform="translate(19.070312 201.713156)rotate(-90)scale(0.1 -0.1)">
      <defs>
       <path id="DejaVuSans-44" d="M 1259 4147 
L 1259 519 
L 2022 519 
Q 2988 519 3436 956 
Q 3884 1394 3884 2338 
Q 3884 3275 3436 3711 
Q 2988 4147 2022 4147 
L 1259 4147 
z
M 628 4666 
L 1925 4666 
Q 3281 4666 3915 4102 
Q 4550 3538 4550 2338 
Q 4550 1131 3912 565 
Q 3275 0 1925 0 
L 628 0 
L 628 4666 
z
" transform="scale(0.015625)"/>
       <path id="DejaVuSans-74" d="M 1172 4494 
L 1172 3500 
L 2356 3500 
L 2356 3053 
L 1172 3053 
L 1172 1153 
Q 1172 725 1289 603 
Q 1406 481 1766 481 
L 2356 481 
L 2356 0 
L 1766 0 
Q 1100 0 847 248 
Q 594 497 594 1153 
L 594 3053 
L 172 3053 
L 172 3500 
L 594 3500 
L 594 4494 
L 1172 4494 
z
" transform="scale(0.015625)"/>
       <path id="DejaVuSans-76" d="M 191 3500 
L 800 3500 
L 1894 563 
L 2988 3500 
L 3597 3500 
L 2284 0 
L 1503 0 
L 191 3500 
z
" transform="scale(0.015625)"/>
      </defs>
      <use xlink:href="#DejaVuSans-44"/>
      <use xlink:href="#DejaVuSans-61" x="77.001953"/>
      <use xlink:href="#DejaVuSans-74" x="138.28125"/>
      <use xlink:href="#DejaVuSans-61" x="177.490234"/>
      <use xlink:href="#DejaVuSans-20" x="238.769531"/>
      <use xlink:href="#DejaVuSans-76" x="270.556641"/>
      <use xlink:href="#DejaVuSans-61" x="329.736328"/>
      <use xlink:href="#DejaVuSans-6c" x="391.015625"/>
      <use xlink:href="#DejaVuSans-75" x="418.798828"/>
      <use xlink:href="#DejaVuSans-65" x="482.177734"/>
     </g>
    </g>
   </g>
   <g id="line2d_12">
    <defs>
     <path id="m015823bbea" d="M 0 3 
C 0.795609 3 1.55874 2.683901 2.12132 2.12132 
C 2.683901 1.55874 3 0.795609 3 0 
C 3 -0.795609 2.683901 -1.55874 2.12132 -2.12132 
C 1.55874 -2.683901 0.795609 -3 0 -3 
C -0.795609 -3 -1.55874 -2.683901 -2.12132 -2.12132 
C -2.683901 -1.55874 -3 -0.795609 -3 0 
C -3 0.795609 -2.683901 1.55874 -2.12132 2.12132 
C -1.55874 2.683901 -0.795609 3 0 3 
z
" style="stroke: #1f77b4"/>
    </defs>
    <g clip-path="url(#p2393e1c4a7)">
     <use xlink:href="#m015823bbea" x="73.832727" y="294.998413" style="fill: #1f77b4; stroke: #1f77b4"/>
     <use xlink:href="#m015823bbea" x="75.250433" y="295.267866" style="fill: #1f77b4; stroke: #1f77b4"/>
     <use xlink:href="#m015823bbea" x="76.668138" y="274.518103" style="fill: #1f77b4; stroke: #1f77b4"/>
     <use xlink:href="#m015823bbea" x="78.085844" y="112.295133" style="fill: #1f77b4; stroke: #1f77b4"/>
     <use xlink:href="#m015823bbea" x="79.503549" y="265.249462" style="fill: #1f77b4; stroke: #1f77b4"/>
     <use xlink:href="#m015823bbea" x="80.921254" y="295.466193" style="fill: #1f77b4; stroke: #1f77b4"/>
     <use xlink:href="#m015823bbea" x="82.33896" y="294.117029" style="fill: #1f77b4; stroke: #1f77b4"/>
     <use xlink:href="#m015823bbea" x="83.756665" y="295.469208" style="fill: #1f77b4; stroke: #1f77b4"/>
     <use xlink:href="#m015823bbea" x="85.174371" y="295.434838" style="fill: #1f77b4; stroke: #1f77b4"/>
     <use xlink:href="#m015823bbea" x="86.592076" y="295.357496" style="fill: #1f77b4; stroke: #1f77b4"/>
     <use xlink:href="#m015823bbea" x="88.009782" y="182.415593" style="fill: #1f77b4; stroke: #1f77b4"/>
     <use xlink:href="#m015823bbea" x="89.427487" y="295.34486" style="fill: #1f77b4; stroke: #1f77b4"/>
     <use xlink:href="#m015823bbea" x="90.845193" y="295.479815" style="fill: #1f77b4; stroke: #1f77b4"/>
     <use xlink:href="#m015823bbea" x="92.262898" y="268.846788" style="fill: #1f77b4; stroke: #1f77b4"/>
     <use xlink:href="#m015823bbea" x="93.680603" y="288.767495" style="fill: #1f77b4; stroke: #1f77b4"/>
     <use xlink:href="#m015823bbea" x="95.098309" y="294.796979" style="fill: #1f77b4; stroke: #1f77b4"/>
     <use xlink:href="#m015823bbea" x="96.516014" y="174.782169" style="fill: #1f77b4; stroke: #1f77b4"/>
     <use xlink:href="#m015823bbea" x="97.93372" y="186.768082" style="fill: #1f77b4; stroke: #1f77b4"/>
     <use xlink:href="#m015823bbea" x="99.351425" y="286.071731" style="fill: #1f77b4; stroke: #1f77b4"/>
     <use xlink:href="#m015823bbea" x="100.769131" y="291.116326" style="fill: #1f77b4; stroke: #1f77b4"/>
     <use xlink:href="#m015823bbea" x="102.186836" y="252.160821" style="fill: #1f77b4; stroke: #1f77b4"/>
     <use xlink:href="#m015823bbea" x="103.604541" y="285.482768" style="fill: #1f77b4; stroke: #1f77b4"/>
     <use xlink:href="#m015823bbea" x="105.022247" y="285.531255" style="fill: #1f77b4; stroke: #1f77b4"/>
     <use xlink:href="#m015823bbea" x="106.439952" y="295.281556" style="fill: #1f77b4; stroke: #1f77b4"/>
     <use xlink:href="#m015823bbea" x="107.857658" y="295.401218" style="fill: #1f77b4; stroke: #1f77b4"/>
     <use xlink:href="#m015823bbea" x="109.275363" y="295.408718" style="fill: #1f77b4; stroke: #1f77b4"/>
     <use xlink:href="#m015823bbea" x="110.693069" y="240.023193" style="fill: #1f77b4; stroke: #1f77b4"/>
     <use xlink:href="#m015823bbea" x="112.110774" y="295.395087" style="fill: #1f77b4; stroke: #1f77b4"/>
     <use xlink:href="#m015823bbea" x="113.52848" y="255.340222" style="fill: #1f77b4; stroke: #1f77b4"/>
     <use xlink:href="#m015823bbea" x="114.946185" y="282.333122" style="fill: #1f77b4; stroke: #1f77b4"/>
     <use xlink:href="#m015823bbea" x="116.36389" y="288.895667" style="fill: #1f77b4; stroke: #1f77b4"/>
     <use xlink:href="#m015823bbea" x="117.781596" y="295.481018" style="fill: #1f77b4; stroke: #1f77b4"/>
     <use xlink:href="#m015823bbea" x="119.199301" y="235.02907" style="fill: #1f77b4; stroke: #1f77b4"/>
     <use xlink:href="#m015823bbea" x="120.617007" y="285.502031" style="fill: #1f77b4; stroke: #1f77b4"/>
     <use xlink:href="#m015823bbea" x="122.034712" y="291.256336" style="fill: #1f77b4; stroke: #1f77b4"/>
     <use xlink:href="#m015823bbea" x="123.452418" y="288.580986" style="fill: #1f77b4; stroke: #1f77b4"/>
     <use xlink:href="#m015823bbea" x="124.870123" y="210.090392" style="fill: #1f77b4; stroke: #1f77b4"/>
     <use xlink:href="#m015823bbea" x="126.287829" y="295.488" style="fill: #1f77b4; stroke: #1f77b4"/>
     <use xlink:href="#m015823bbea" x="127.705534" y="295.413098" style="fill: #1f77b4; stroke: #1f77b4"/>
     <use xlink:href="#m015823bbea" x="129.123239" y="295.452753" style="fill: #1f77b4; stroke: #1f77b4"/>
     <use xlink:href="#m015823bbea" x="130.540945" y="292.147524" style="fill: #1f77b4; stroke: #1f77b4"/>
     <use xlink:href="#m015823bbea" x="131.95865" y="294.895797" style="fill: #1f77b4; stroke: #1f77b4"/>
     <use xlink:href="#m015823bbea" x="133.376356" y="295.237766" style="fill: #1f77b4; stroke: #1f77b4"/>
     <use xlink:href="#m015823bbea" x="134.794061" y="266.842143" style="fill: #1f77b4; stroke: #1f77b4"/>
     <use xlink:href="#m015823bbea" x="136.211767" y="292.590577" style="fill: #1f77b4; stroke: #1f77b4"/>
     <use xlink:href="#m015823bbea" x="137.629472" y="293.138484" style="fill: #1f77b4; stroke: #1f77b4"/>
     <use xlink:href="#m015823bbea" x="139.047177" y="290.408908" style="fill: #1f77b4; stroke: #1f77b4"/>
     <use xlink:href="#m015823bbea" x="140.464883" y="295.439687" style="fill: #1f77b4; stroke: #1f77b4"/>
     <use xlink:href="#m015823bbea" x="141.882588" y="294.456241" style="fill: #1f77b4; stroke: #1f77b4"/>
     <use xlink:href="#m015823bbea" x="143.300294" y="293.736173" style="fill: #1f77b4; stroke: #1f77b4"/>
     <use xlink:href="#m015823bbea" x="144.717999" y="160.818723" style="fill: #1f77b4; stroke: #1f77b4"/>
     <use xlink:href="#m015823bbea" x="146.135705" y="155.657437" style="fill: #1f77b4; stroke: #1f77b4"/>
     <use xlink:href="#m015823bbea" x="147.55341" y="295.484681" style="fill: #1f77b4; stroke: #1f77b4"/>
     <use xlink:href="#m015823bbea" x="148.971116" y="294.906908" style="fill: #1f77b4; stroke: #1f77b4"/>
     <use xlink:href="#m015823bbea" x="150.388821" y="246.720709" style="fill: #1f77b4; stroke: #1f77b4"/>
     <use xlink:href="#m015823bbea" x="151.806526" y="285.877298" style="fill: #1f77b4; stroke: #1f77b4"/>
     <use xlink:href="#m015823bbea" x="153.224232" y="264.161429" style="fill: #1f77b4; stroke: #1f77b4"/>
     <use xlink:href="#m015823bbea" x="154.641937" y="295.416501" style="fill: #1f77b4; stroke: #1f77b4"/>
     <use xlink:href="#m015823bbea" x="156.059643" y="278.816969" style="fill: #1f77b4; stroke: #1f77b4"/>
     <use xlink:href="#m015823bbea" x="157.477348" y="295.373276" style="fill: #1f77b4; stroke: #1f77b4"/>
     <use xlink:href="#m015823bbea" x="158.895054" y="287.943404" style="fill: #1f77b4; stroke: #1f77b4"/>
     <use xlink:href="#m015823bbea" x="160.312759" y="295.255344" style="fill: #1f77b4; stroke: #1f77b4"/>
     <use xlink:href="#m015823bbea" x="161.730464" y="295.469933" style="fill: #1f77b4; stroke: #1f77b4"/>
     <use xlink:href="#m015823bbea" x="163.14817" y="295.272327" style="fill: #1f77b4; stroke: #1f77b4"/>
     <use xlink:href="#m015823bbea" x="164.565875" y="295.158816" style="fill: #1f77b4; stroke: #1f77b4"/>
     <use xlink:href="#m015823bbea" x="165.983581" y="295.423266" style="fill: #1f77b4; stroke: #1f77b4"/>
     <use xlink:href="#m015823bbea" x="167.401286" y="295.424958" style="fill: #1f77b4; stroke: #1f77b4"/>
     <use xlink:href="#m015823bbea" x="168.818992" y="239.628479" style="fill: #1f77b4; stroke: #1f77b4"/>
     <use xlink:href="#m015823bbea" x="170.236697" y="145.576925" style="fill: #1f77b4; stroke: #1f77b4"/>
     <use xlink:href="#m015823bbea" x="171.654403" y="292.912962" style="fill: #1f77b4; stroke: #1f77b4"/>
     <use xlink:href="#m015823bbea" x="173.072108" y="128.944247" style="fill: #1f77b4; stroke: #1f77b4"/>
     <use xlink:href="#m015823bbea" x="174.489813" y="163.737098" style="fill: #1f77b4; stroke: #1f77b4"/>
     <use xlink:href="#m015823bbea" x="175.907519" y="295.410702" style="fill: #1f77b4; stroke: #1f77b4"/>
     <use xlink:href="#m015823bbea" x="177.325224" y="295.487679" style="fill: #1f77b4; stroke: #1f77b4"/>
     <use xlink:href="#m015823bbea" x="178.74293" y="86.544244" style="fill: #1f77b4; stroke: #1f77b4"/>
     <use xlink:href="#m015823bbea" x="180.160635" y="295.402857" style="fill: #1f77b4; stroke: #1f77b4"/>
     <use xlink:href="#m015823bbea" x="181.578341" y="295.40651" style="fill: #1f77b4; stroke: #1f77b4"/>
     <use xlink:href="#m015823bbea" x="182.996046" y="295.437927" style="fill: #1f77b4; stroke: #1f77b4"/>
     <use xlink:href="#m015823bbea" x="184.413751" y="206.350594" style="fill: #1f77b4; stroke: #1f77b4"/>
     <use xlink:href="#m015823bbea" x="185.831457" y="259.539492" style="fill: #1f77b4; stroke: #1f77b4"/>
     <use xlink:href="#m015823bbea" x="187.249162" y="288.233288" style="fill: #1f77b4; stroke: #1f77b4"/>
     <use xlink:href="#m015823bbea" x="188.666868" y="256.667547" style="fill: #1f77b4; stroke: #1f77b4"/>
     <use xlink:href="#m015823bbea" x="190.084573" y="278.400657" style="fill: #1f77b4; stroke: #1f77b4"/>
     <use xlink:href="#m015823bbea" x="191.502279" y="295.43355" style="fill: #1f77b4; stroke: #1f77b4"/>
     <use xlink:href="#m015823bbea" x="192.919984" y="295.237013" style="fill: #1f77b4; stroke: #1f77b4"/>
     <use xlink:href="#m015823bbea" x="194.33769" y="53.568" style="fill: #1f77b4; stroke: #1f77b4"/>
     <use xlink:href="#m015823bbea" x="195.755395" y="251.434329" style="fill: #1f77b4; stroke: #1f77b4"/>
     <use xlink:href="#m015823bbea" x="197.1731" y="294.975309" style="fill: #1f77b4; stroke: #1f77b4"/>
     <use xlink:href="#m015823bbea" x="198.590806" y="295.35436" style="fill: #1f77b4; stroke: #1f77b4"/>
     <use xlink:href="#m015823bbea" x="200.008511" y="291.62784" style="fill: #1f77b4; stroke: #1f77b4"/>
     <use xlink:href="#m015823bbea" x="201.426217" y="291.308694" style="fill: #1f77b4; stroke: #1f77b4"/>
     <use xlink:href="#m015823bbea" x="202.843922" y="119.811141" style="fill: #1f77b4; stroke: #1f77b4"/>
     <use xlink:href="#m015823bbea" x="204.261628" y="276.460354" style="fill: #1f77b4; stroke: #1f77b4"/>
     <use xlink:href="#m015823bbea" x="205.679333" y="295.388465" style="fill: #1f77b4; stroke: #1f77b4"/>
     <use xlink:href="#m015823bbea" x="207.097039" y="293.314008" style="fill: #1f77b4; stroke: #1f77b4"/>
     <use xlink:href="#m015823bbea" x="208.514744" y="131.472912" style="fill: #1f77b4; stroke: #1f77b4"/>
     <use xlink:href="#m015823bbea" x="209.932449" y="286.968492" style="fill: #1f77b4; stroke: #1f77b4"/>
     <use xlink:href="#m015823bbea" x="211.350155" y="292.599577" style="fill: #1f77b4; stroke: #1f77b4"/>
     <use xlink:href="#m015823bbea" x="212.76786" y="293.140481" style="fill: #1f77b4; stroke: #1f77b4"/>
     <use xlink:href="#m015823bbea" x="214.185566" y="295.471049" style="fill: #1f77b4; stroke: #1f77b4"/>
     <use xlink:href="#m015823bbea" x="215.603271" y="295.483401" style="fill: #1f77b4; stroke: #1f77b4"/>
     <use xlink:href="#m015823bbea" x="217.020977" y="201.337351" style="fill: #1f77b4; stroke: #1f77b4"/>
     <use xlink:href="#m015823bbea" x="218.438682" y="294.824732" style="fill: #1f77b4; stroke: #1f77b4"/>
     <use xlink:href="#m015823bbea" x="219.856387" y="274.28136" style="fill: #1f77b4; stroke: #1f77b4"/>
     <use xlink:href="#m015823bbea" x="221.274093" y="231.474605" style="fill: #1f77b4; stroke: #1f77b4"/>
     <use xlink:href="#m015823bbea" x="222.691798" y="287.64576" style="fill: #1f77b4; stroke: #1f77b4"/>
     <use xlink:href="#m015823bbea" x="224.109504" y="270.588805" style="fill: #1f77b4; stroke: #1f77b4"/>
     <use xlink:href="#m015823bbea" x="225.527209" y="294.238452" style="fill: #1f77b4; stroke: #1f77b4"/>
     <use xlink:href="#m015823bbea" x="226.944915" y="60.980247" style="fill: #1f77b4; stroke: #1f77b4"/>
     <use xlink:href="#m015823bbea" x="228.36262" y="293.863769" style="fill: #1f77b4; stroke: #1f77b4"/>
     <use xlink:href="#m015823bbea" x="229.780326" y="295.305084" style="fill: #1f77b4; stroke: #1f77b4"/>
     <use xlink:href="#m015823bbea" x="231.198031" y="291.692346" style="fill: #1f77b4; stroke: #1f77b4"/>
     <use xlink:href="#m015823bbea" x="232.615736" y="273.033607" style="fill: #1f77b4; stroke: #1f77b4"/>
     <use xlink:href="#m015823bbea" x="234.033442" y="281.974693" style="fill: #1f77b4; stroke: #1f77b4"/>
     <use xlink:href="#m015823bbea" x="235.451147" y="295.270073" style="fill: #1f77b4; stroke: #1f77b4"/>
     <use xlink:href="#m015823bbea" x="236.868853" y="295.478023" style="fill: #1f77b4; stroke: #1f77b4"/>
     <use xlink:href="#m015823bbea" x="238.286558" y="294.405645" style="fill: #1f77b4; stroke: #1f77b4"/>
     <use xlink:href="#m015823bbea" x="239.704264" y="273.403227" style="fill: #1f77b4; stroke: #1f77b4"/>
     <use xlink:href="#m015823bbea" x="241.121969" y="257.812375" style="fill: #1f77b4; stroke: #1f77b4"/>
     <use xlink:href="#m015823bbea" x="242.539674" y="269.513222" style="fill: #1f77b4; stroke: #1f77b4"/>
     <use xlink:href="#m015823bbea" x="243.95738" y="295.374436" style="fill: #1f77b4; stroke: #1f77b4"/>
     <use xlink:href="#m015823bbea" x="245.375085" y="295.46846" style="fill: #1f77b4; stroke: #1f77b4"/>
     <use xlink:href="#m015823bbea" x="246.792791" y="217.59428" style="fill: #1f77b4; stroke: #1f77b4"/>
     <use xlink:href="#m015823bbea" x="248.210496" y="295.464385" style="fill: #1f77b4; stroke: #1f77b4"/>
     <use xlink:href="#m015823bbea" x="249.628202" y="286.286291" style="fill: #1f77b4; stroke: #1f77b4"/>
     <use xlink:href="#m015823bbea" x="251.045907" y="272.809239" style="fill: #1f77b4; stroke: #1f77b4"/>
     <use xlink:href="#m015823bbea" x="252.463613" y="289.679989" style="fill: #1f77b4; stroke: #1f77b4"/>
     <use xlink:href="#m015823bbea" x="253.881318" y="295.107035" style="fill: #1f77b4; stroke: #1f77b4"/>
     <use xlink:href="#m015823bbea" x="255.299023" y="295.331371" style="fill: #1f77b4; stroke: #1f77b4"/>
     <use xlink:href="#m015823bbea" x="256.716729" y="295.482208" style="fill: #1f77b4; stroke: #1f77b4"/>
     <use xlink:href="#m015823bbea" x="258.134434" y="289.355925" style="fill: #1f77b4; stroke: #1f77b4"/>
     <use xlink:href="#m015823bbea" x="259.55214" y="295.418659" style="fill: #1f77b4; stroke: #1f77b4"/>
     <use xlink:href="#m015823bbea" x="260.969845" y="295.387887" style="fill: #1f77b4; stroke: #1f77b4"/>
     <use xlink:href="#m015823bbea" x="262.387551" y="266.278671" style="fill: #1f77b4; stroke: #1f77b4"/>
     <use xlink:href="#m015823bbea" x="263.805256" y="287.033603" style="fill: #1f77b4; stroke: #1f77b4"/>
     <use xlink:href="#m015823bbea" x="265.222961" y="292.851633" style="fill: #1f77b4; stroke: #1f77b4"/>
     <use xlink:href="#m015823bbea" x="266.640667" y="294.292875" style="fill: #1f77b4; stroke: #1f77b4"/>
     <use xlink:href="#m015823bbea" x="268.058372" y="283.170445" style="fill: #1f77b4; stroke: #1f77b4"/>
     <use xlink:href="#m015823bbea" x="269.476078" y="294.568835" style="fill: #1f77b4; stroke: #1f77b4"/>
     <use xlink:href="#m015823bbea" x="270.893783" y="152.135878" style="fill: #1f77b4; stroke: #1f77b4"/>
     <use xlink:href="#m015823bbea" x="272.311489" y="295.245128" style="fill: #1f77b4; stroke: #1f77b4"/>
     <use xlink:href="#m015823bbea" x="273.729194" y="226.23465" style="fill: #1f77b4; stroke: #1f77b4"/>
     <use xlink:href="#m015823bbea" x="275.1469" y="285.344443" style="fill: #1f77b4; stroke: #1f77b4"/>
     <use xlink:href="#m015823bbea" x="276.564605" y="268.1786" style="fill: #1f77b4; stroke: #1f77b4"/>
     <use xlink:href="#m015823bbea" x="277.98231" y="294.696391" style="fill: #1f77b4; stroke: #1f77b4"/>
     <use xlink:href="#m015823bbea" x="279.400016" y="274.794563" style="fill: #1f77b4; stroke: #1f77b4"/>
     <use xlink:href="#m015823bbea" x="280.817721" y="295.297432" style="fill: #1f77b4; stroke: #1f77b4"/>
     <use xlink:href="#m015823bbea" x="282.235427" y="295.066374" style="fill: #1f77b4; stroke: #1f77b4"/>
     <use xlink:href="#m015823bbea" x="283.653132" y="287.602476" style="fill: #1f77b4; stroke: #1f77b4"/>
     <use xlink:href="#m015823bbea" x="285.070838" y="291.352582" style="fill: #1f77b4; stroke: #1f77b4"/>
     <use xlink:href="#m015823bbea" x="286.488543" y="292.555247" style="fill: #1f77b4; stroke: #1f77b4"/>
     <use xlink:href="#m015823bbea" x="287.906249" y="295.442879" style="fill: #1f77b4; stroke: #1f77b4"/>
     <use xlink:href="#m015823bbea" x="289.323954" y="101.07697" style="fill: #1f77b4; stroke: #1f77b4"/>
     <use xlink:href="#m015823bbea" x="290.741659" y="281.288841" style="fill: #1f77b4; stroke: #1f77b4"/>
     <use xlink:href="#m015823bbea" x="292.159365" y="295.395594" style="fill: #1f77b4; stroke: #1f77b4"/>
     <use xlink:href="#m015823bbea" x="293.57707" y="295.470553" style="fill: #1f77b4; stroke: #1f77b4"/>
     <use xlink:href="#m015823bbea" x="294.994776" y="295.472341" style="fill: #1f77b4; stroke: #1f77b4"/>
     <use xlink:href="#m015823bbea" x="296.412481" y="295.161281" style="fill: #1f77b4; stroke: #1f77b4"/>
     <use xlink:href="#m015823bbea" x="297.830187" y="294.146909" style="fill: #1f77b4; stroke: #1f77b4"/>
     <use xlink:href="#m015823bbea" x="299.247892" y="295.45217" style="fill: #1f77b4; stroke: #1f77b4"/>
     <use xlink:href="#m015823bbea" x="300.665597" y="295.484359" style="fill: #1f77b4; stroke: #1f77b4"/>
     <use xlink:href="#m015823bbea" x="302.083303" y="290.184776" style="fill: #1f77b4; stroke: #1f77b4"/>
     <use xlink:href="#m015823bbea" x="303.501008" y="67.56374" style="fill: #1f77b4; stroke: #1f77b4"/>
     <use xlink:href="#m015823bbea" x="304.918714" y="295.349063" style="fill: #1f77b4; stroke: #1f77b4"/>
     <use xlink:href="#m015823bbea" x="306.336419" y="287.833169" style="fill: #1f77b4; stroke: #1f77b4"/>
     <use xlink:href="#m015823bbea" x="307.754125" y="292.178654" style="fill: #1f77b4; stroke: #1f77b4"/>
     <use xlink:href="#m015823bbea" x="309.17183" y="295.444007" style="fill: #1f77b4; stroke: #1f77b4"/>
     <use xlink:href="#m015823bbea" x="310.589536" y="290.324816" style="fill: #1f77b4; stroke: #1f77b4"/>
     <use xlink:href="#m015823bbea" x="312.007241" y="294.670286" style="fill: #1f77b4; stroke: #1f77b4"/>
     <use xlink:href="#m015823bbea" x="313.424946" y="120.232797" style="fill: #1f77b4; stroke: #1f77b4"/>
     <use xlink:href="#m015823bbea" x="314.842652" y="295.349767" style="fill: #1f77b4; stroke: #1f77b4"/>
     <use xlink:href="#m015823bbea" x="316.260357" y="230.669474" style="fill: #1f77b4; stroke: #1f77b4"/>
     <use xlink:href="#m015823bbea" x="317.678063" y="291.884454" style="fill: #1f77b4; stroke: #1f77b4"/>
     <use xlink:href="#m015823bbea" x="319.095768" y="294.993352" style="fill: #1f77b4; stroke: #1f77b4"/>
     <use xlink:href="#m015823bbea" x="320.513474" y="276.258625" style="fill: #1f77b4; stroke: #1f77b4"/>
     <use xlink:href="#m015823bbea" x="321.931179" y="295.41256" style="fill: #1f77b4; stroke: #1f77b4"/>
     <use xlink:href="#m015823bbea" x="323.348884" y="271.860752" style="fill: #1f77b4; stroke: #1f77b4"/>
     <use xlink:href="#m015823bbea" x="324.76659" y="295.447192" style="fill: #1f77b4; stroke: #1f77b4"/>
     <use xlink:href="#m015823bbea" x="326.184295" y="294.905764" style="fill: #1f77b4; stroke: #1f77b4"/>
     <use xlink:href="#m015823bbea" x="327.602001" y="129.004269" style="fill: #1f77b4; stroke: #1f77b4"/>
     <use xlink:href="#m015823bbea" x="329.019706" y="177.723921" style="fill: #1f77b4; stroke: #1f77b4"/>
     <use xlink:href="#m015823bbea" x="330.437412" y="294.983144" style="fill: #1f77b4; stroke: #1f77b4"/>
     <use xlink:href="#m015823bbea" x="331.855117" y="290.471283" style="fill: #1f77b4; stroke: #1f77b4"/>
     <use xlink:href="#m015823bbea" x="333.272823" y="182.478981" style="fill: #1f77b4; stroke: #1f77b4"/>
     <use xlink:href="#m015823bbea" x="334.690528" y="295.474974" style="fill: #1f77b4; stroke: #1f77b4"/>
     <use xlink:href="#m015823bbea" x="336.108233" y="294.491839" style="fill: #1f77b4; stroke: #1f77b4"/>
     <use xlink:href="#m015823bbea" x="337.525939" y="295.187489" style="fill: #1f77b4; stroke: #1f77b4"/>
     <use xlink:href="#m015823bbea" x="338.943644" y="295.482127" style="fill: #1f77b4; stroke: #1f77b4"/>
     <use xlink:href="#m015823bbea" x="340.36135" y="282.725152" style="fill: #1f77b4; stroke: #1f77b4"/>
     <use xlink:href="#m015823bbea" x="341.779055" y="295.469441" style="fill: #1f77b4; stroke: #1f77b4"/>
     <use xlink:href="#m015823bbea" x="343.196761" y="295.486507" style="fill: #1f77b4; stroke: #1f77b4"/>
     <use xlink:href="#m015823bbea" x="344.614466" y="295.444464" style="fill: #1f77b4; stroke: #1f77b4"/>
     <use xlink:href="#m015823bbea" x="346.032171" y="88.177994" style="fill: #1f77b4; stroke: #1f77b4"/>
     <use xlink:href="#m015823bbea" x="347.449877" y="168.595129" style="fill: #1f77b4; stroke: #1f77b4"/>
     <use xlink:href="#m015823bbea" x="348.867582" y="289.360362" style="fill: #1f77b4; stroke: #1f77b4"/>
     <use xlink:href="#m015823bbea" x="350.285288" y="295.473269" style="fill: #1f77b4; stroke: #1f77b4"/>
     <use xlink:href="#m015823bbea" x="351.702993" y="293.802187" style="fill: #1f77b4; stroke: #1f77b4"/>
     <use xlink:href="#m015823bbea" x="353.120699" y="295.282336" style="fill: #1f77b4; stroke: #1f77b4"/>
     <use xlink:href="#m015823bbea" x="354.538404" y="295.44732" style="fill: #1f77b4; stroke: #1f77b4"/>
     <use xlink:href="#m015823bbea" x="355.95611" y="168.904781" style="fill: #1f77b4; stroke: #1f77b4"/>
     <use xlink:href="#m015823bbea" x="357.373815" y="293.669386" style="fill: #1f77b4; stroke: #1f77b4"/>
     <use xlink:href="#m015823bbea" x="358.79152" y="294.878737" style="fill: #1f77b4; stroke: #1f77b4"/>
     <use xlink:href="#m015823bbea" x="360.209226" y="294.364884" style="fill: #1f77b4; stroke: #1f77b4"/>
     <use xlink:href="#m015823bbea" x="361.626931" y="295.015182" style="fill: #1f77b4; stroke: #1f77b4"/>
     <use xlink:href="#m015823bbea" x="363.044637" y="295.449867" style="fill: #1f77b4; stroke: #1f77b4"/>
     <use xlink:href="#m015823bbea" x="364.462342" y="292.02259" style="fill: #1f77b4; stroke: #1f77b4"/>
     <use xlink:href="#m015823bbea" x="365.880048" y="218.967449" style="fill: #1f77b4; stroke: #1f77b4"/>
     <use xlink:href="#m015823bbea" x="367.297753" y="169.683171" style="fill: #1f77b4; stroke: #1f77b4"/>
     <use xlink:href="#m015823bbea" x="368.715459" y="295.478831" style="fill: #1f77b4; stroke: #1f77b4"/>
     <use xlink:href="#m015823bbea" x="370.133164" y="278.472462" style="fill: #1f77b4; stroke: #1f77b4"/>
     <use xlink:href="#m015823bbea" x="371.550869" y="294.205081" style="fill: #1f77b4; stroke: #1f77b4"/>
     <use xlink:href="#m015823bbea" x="372.968575" y="62.692687" style="fill: #1f77b4; stroke: #1f77b4"/>
     <use xlink:href="#m015823bbea" x="374.38628" y="295.487559" style="fill: #1f77b4; stroke: #1f77b4"/>
     <use xlink:href="#m015823bbea" x="375.803986" y="294.763134" style="fill: #1f77b4; stroke: #1f77b4"/>
     <use xlink:href="#m015823bbea" x="377.221691" y="293.520542" style="fill: #1f77b4; stroke: #1f77b4"/>
     <use xlink:href="#m015823bbea" x="378.639397" y="239.410977" style="fill: #1f77b4; stroke: #1f77b4"/>
     <use xlink:href="#m015823bbea" x="380.057102" y="294.722987" style="fill: #1f77b4; stroke: #1f77b4"/>
     <use xlink:href="#m015823bbea" x="381.474807" y="295.482087" style="fill: #1f77b4; stroke: #1f77b4"/>
     <use xlink:href="#m015823bbea" x="382.892513" y="295.449703" style="fill: #1f77b4; stroke: #1f77b4"/>
     <use xlink:href="#m015823bbea" x="384.310218" y="295.467461" style="fill: #1f77b4; stroke: #1f77b4"/>
     <use xlink:href="#m015823bbea" x="385.727924" y="269.279995" style="fill: #1f77b4; stroke: #1f77b4"/>
     <use xlink:href="#m015823bbea" x="387.145629" y="192.705201" style="fill: #1f77b4; stroke: #1f77b4"/>
     <use xlink:href="#m015823bbea" x="388.563335" y="292.278628" style="fill: #1f77b4; stroke: #1f77b4"/>
     <use xlink:href="#m015823bbea" x="389.98104" y="284.772234" style="fill: #1f77b4; stroke: #1f77b4"/>
     <use xlink:href="#m015823bbea" x="391.398746" y="295.484111" style="fill: #1f77b4; stroke: #1f77b4"/>
     <use xlink:href="#m015823bbea" x="392.816451" y="206.852623" style="fill: #1f77b4; stroke: #1f77b4"/>
     <use xlink:href="#m015823bbea" x="394.234156" y="295.481967" style="fill: #1f77b4; stroke: #1f77b4"/>
     <use xlink:href="#m015823bbea" x="395.651862" y="289.549357" style="fill: #1f77b4; stroke: #1f77b4"/>
     <use xlink:href="#m015823bbea" x="397.069567" y="284.948002" style="fill: #1f77b4; stroke: #1f77b4"/>
     <use xlink:href="#m015823bbea" x="398.487273" y="164.861554" style="fill: #1f77b4; stroke: #1f77b4"/>
    </g>
   </g>
   <g id="patch_3">
    <path d="M 57.6 307.584 
L 57.6 41.472 
" style="fill: none; stroke: #000000; stroke-width: 0.8; stroke-linejoin: miter; stroke-linecap: square"/>
   </g>
   <g id="patch_4">
    <path d="M 414.72 307.584 
L 414.72 41.472 
" style="fill: none; stroke: #000000; stroke-width: 0.8; stroke-linejoin: miter; stroke-linecap: square"/>
   </g>
   <g id="patch_5">
    <path d="M 57.6 307.584 
L 414.72 307.584 
" style="fill: none; stroke: #000000; stroke-width: 0.8; stroke-linejoin: miter; stroke-linecap: square"/>
   </g>
   <g id="patch_6">
    <path d="M 57.6 41.472 
L 414.72 41.472 
" style="fill: none; stroke: #000000; stroke-width: 0.8; stroke-linejoin: miter; stroke-linecap: square"/>
   </g>
   <g id="text_14">
    <!-- Plot of 230 samples (1/f) after shuffling -->
    <g transform="translate(118.506563 35.472)scale(0.12 -0.12)">
     <defs>
      <path id="DejaVuSans-50" d="M 1259 4147 
L 1259 2394 
L 2053 2394 
Q 2494 2394 2734 2622 
Q 2975 2850 2975 3272 
Q 2975 3691 2734 3919 
Q 2494 4147 2053 4147 
L 1259 4147 
z
M 628 4666 
L 2053 4666 
Q 2838 4666 3239 4311 
Q 3641 3956 3641 3272 
Q 3641 2581 3239 2228 
Q 2838 1875 2053 1875 
L 1259 1875 
L 1259 0 
L 628 0 
L 628 4666 
z
" transform="scale(0.015625)"/>
      <path id="DejaVuSans-6f" d="M 1959 3097 
Q 1497 3097 1228 2736 
Q 959 2375 959 1747 
Q 959 1119 1226 758 
Q 1494 397 1959 397 
Q 2419 397 2687 759 
Q 2956 1122 2956 1747 
Q 2956 2369 2687 2733 
Q 2419 3097 1959 3097 
z
M 1959 3584 
Q 2709 3584 3137 3096 
Q 3566 2609 3566 1747 
Q 3566 888 3137 398 
Q 2709 -91 1959 -91 
Q 1206 -91 779 398 
Q 353 888 353 1747 
Q 353 2609 779 3096 
Q 1206 3584 1959 3584 
z
" transform="scale(0.015625)"/>
      <path id="DejaVuSans-66" d="M 2375 4863 
L 2375 4384 
L 1825 4384 
Q 1516 4384 1395 4259 
Q 1275 4134 1275 3809 
L 1275 3500 
L 2222 3500 
L 2222 3053 
L 1275 3053 
L 1275 0 
L 697 0 
L 697 3053 
L 147 3053 
L 147 3500 
L 697 3500 
L 697 3744 
Q 697 4328 969 4595 
Q 1241 4863 1831 4863 
L 2375 4863 
z
" transform="scale(0.015625)"/>
      <path id="DejaVuSans-33" d="M 2597 2516 
Q 3050 2419 3304 2112 
Q 3559 1806 3559 1356 
Q 3559 666 3084 287 
Q 2609 -91 1734 -91 
Q 1441 -91 1130 -33 
Q 819 25 488 141 
L 488 750 
Q 750 597 1062 519 
Q 1375 441 1716 441 
Q 2309 441 2620 675 
Q 2931 909 2931 1356 
Q 2931 1769 2642 2001 
Q 2353 2234 1838 2234 
L 1294 2234 
L 1294 2753 
L 1863 2753 
Q 2328 2753 2575 2939 
Q 2822 3125 2822 3475 
Q 2822 3834 2567 4026 
Q 2313 4219 1838 4219 
Q 1578 4219 1281 4162 
Q 984 4106 628 3988 
L 628 4550 
Q 988 4650 1302 4700 
Q 1616 4750 1894 4750 
Q 2613 4750 3031 4423 
Q 3450 4097 3450 3541 
Q 3450 3153 3228 2886 
Q 3006 2619 2597 2516 
z
" transform="scale(0.015625)"/>
      <path id="DejaVuSans-73" d="M 2834 3397 
L 2834 2853 
Q 2591 2978 2328 3040 
Q 2066 3103 1784 3103 
Q 1356 3103 1142 2972 
Q 928 2841 928 2578 
Q 928 2378 1081 2264 
Q 1234 2150 1697 2047 
L 1894 2003 
Q 2506 1872 2764 1633 
Q 3022 1394 3022 966 
Q 3022 478 2636 193 
Q 2250 -91 1575 -91 
Q 1294 -91 989 -36 
Q 684 19 347 128 
L 347 722 
Q 666 556 975 473 
Q 1284 391 1588 391 
Q 1994 391 2212 530 
Q 2431 669 2431 922 
Q 2431 1156 2273 1281 
Q 2116 1406 1581 1522 
L 1381 1569 
Q 847 1681 609 1914 
Q 372 2147 372 2553 
Q 372 3047 722 3315 
Q 1072 3584 1716 3584 
Q 2034 3584 2315 3537 
Q 2597 3491 2834 3397 
z
" transform="scale(0.015625)"/>
      <path id="DejaVuSans-28" d="M 1984 4856 
Q 1566 4138 1362 3434 
Q 1159 2731 1159 2009 
Q 1159 1288 1364 580 
Q 1569 -128 1984 -844 
L 1484 -844 
Q 1016 -109 783 600 
Q 550 1309 550 2009 
Q 550 2706 781 3412 
Q 1013 4119 1484 4856 
L 1984 4856 
z
" transform="scale(0.015625)"/>
      <path id="DejaVuSans-2f" d="M 1625 4666 
L 2156 4666 
L 531 -594 
L 0 -594 
L 1625 4666 
z
" transform="scale(0.015625)"/>
      <path id="DejaVuSans-29" d="M 513 4856 
L 1013 4856 
Q 1481 4119 1714 3412 
Q 1947 2706 1947 2009 
Q 1947 1309 1714 600 
Q 1481 -109 1013 -844 
L 513 -844 
Q 928 -128 1133 580 
Q 1338 1288 1338 2009 
Q 1338 2731 1133 3434 
Q 928 4138 513 4856 
z
" transform="scale(0.015625)"/>
      <path id="DejaVuSans-68" d="M 3513 2113 
L 3513 0 
L 2938 0 
L 2938 2094 
Q 2938 2591 2744 2837 
Q 2550 3084 2163 3084 
Q 1697 3084 1428 2787 
Q 1159 2491 1159 1978 
L 1159 0 
L 581 0 
L 581 4863 
L 1159 4863 
L 1159 2956 
Q 1366 3272 1645 3428 
Q 1925 3584 2291 3584 
Q 2894 3584 3203 3211 
Q 3513 2838 3513 2113 
z
" transform="scale(0.015625)"/>
      <path id="DejaVuSans-69" d="M 603 3500 
L 1178 3500 
L 1178 0 
L 603 0 
L 603 3500 
z
M 603 4863 
L 1178 4863 
L 1178 4134 
L 603 4134 
L 603 4863 
z
" transform="scale(0.015625)"/>
      <path id="DejaVuSans-67" d="M 2906 1791 
Q 2906 2416 2648 2759 
Q 2391 3103 1925 3103 
Q 1463 3103 1205 2759 
Q 947 2416 947 1791 
Q 947 1169 1205 825 
Q 1463 481 1925 481 
Q 2391 481 2648 825 
Q 2906 1169 2906 1791 
z
M 3481 434 
Q 3481 -459 3084 -895 
Q 2688 -1331 1869 -1331 
Q 1566 -1331 1297 -1286 
Q 1028 -1241 775 -1147 
L 775 -588 
Q 1028 -725 1275 -790 
Q 1522 -856 1778 -856 
Q 2344 -856 2625 -561 
Q 2906 -266 2906 331 
L 2906 616 
Q 2728 306 2450 153 
Q 2172 0 1784 0 
Q 1141 0 747 490 
Q 353 981 353 1791 
Q 353 2603 747 3093 
Q 1141 3584 1784 3584 
Q 2172 3584 2450 3431 
Q 2728 3278 2906 2969 
L 2906 3500 
L 3481 3500 
L 3481 434 
z
" transform="scale(0.015625)"/>
     </defs>
     <use xlink:href="#DejaVuSans-50"/>
     <use xlink:href="#DejaVuSans-6c" x="60.302734"/>
     <use xlink:href="#DejaVuSans-6f" x="88.085938"/>
     <use xlink:href="#DejaVuSans-74" x="149.267578"/>
     <use xlink:href="#DejaVuSans-20" x="188.476562"/>
     <use xlink:href="#DejaVuSans-6f" x="220.263672"/>
     <use xlink:href="#DejaVuSans-66" x="281.445312"/>
     <use xlink:href="#DejaVuSans-20" x="316.650391"/>
     <use xlink:href="#DejaVuSans-32" x="348.4375"/>
     <use xlink:href="#DejaVuSans-33" x="412.060547"/>
     <use xlink:href="#DejaVuSans-30" x="475.683594"/>
     <use xlink:href="#DejaVuSans-20" x="539.306641"/>
     <use xlink:href="#DejaVuSans-73" x="571.09375"/>
     <use xlink:href="#DejaVuSans-61" x="623.193359"/>
     <use xlink:href="#DejaVuSans-6d" x="684.472656"/>
     <use xlink:href="#DejaVuSans-70" x="781.884766"/>
     <use xlink:href="#DejaVuSans-6c" x="845.361328"/>
     <use xlink:href="#DejaVuSans-65" x="873.144531"/>
     <use xlink:href="#DejaVuSans-73" x="934.667969"/>
     <use xlink:href="#DejaVuSans-20" x="986.767578"/>
     <use xlink:href="#DejaVuSans-28" x="1018.554688"/>
     <use xlink:href="#DejaVuSans-31" x="1057.568359"/>
     <use xlink:href="#DejaVuSans-2f" x="1121.191406"/>
     <use xlink:href="#DejaVuSans-66" x="1154.882812"/>
     <use xlink:href="#DejaVuSans-29" x="1190.087891"/>
     <use xlink:href="#DejaVuSans-20" x="1229.101562"/>
     <use xlink:href="#DejaVuSans-61" x="1260.888672"/>
     <use xlink:href="#DejaVuSans-66" x="1322.167969"/>
     <use xlink:href="#DejaVuSans-74" x="1355.623047"/>
     <use xlink:href="#DejaVuSans-65" x="1394.832031"/>
     <use xlink:href="#DejaVuSans-72" x="1456.355469"/>
     <use xlink:href="#DejaVuSans-20" x="1497.46875"/>
     <use xlink:href="#DejaVuSans-73" x="1529.255859"/>
     <use xlink:href="#DejaVuSans-68" x="1581.355469"/>
     <use xlink:href="#DejaVuSans-75" x="1644.734375"/>
     <use xlink:href="#DejaVuSans-66" x="1708.113281"/>
     <use xlink:href="#DejaVuSans-66" x="1743.318359"/>
     <use xlink:href="#DejaVuSans-6c" x="1778.523438"/>
     <use xlink:href="#DejaVuSans-69" x="1806.306641"/>
     <use xlink:href="#DejaVuSans-6e" x="1834.089844"/>
     <use xlink:href="#DejaVuSans-67" x="1897.46875"/>
    </g>
   </g>
  </g>
 </g>
 <defs>
  <clipPath id="p2393e1c4a7">
   <rect x="57.6" y="41.472" width="357.12" height="266.112"/>
  </clipPath>
 </defs>
</svg>
